<svg id="Capa_1" data-name="Capa 1" xmlns="http://www.w3.org/2000/svg" xmlns:xlink="http://www.w3.org/1999/xlink" viewBox="0 0 223.42 36.12"><defs><style>.cls-1{fill:url(#Degradado_sin_nombre_2);}.cls-2{fill:url(#Degradado_sin_nombre_2-2);}.cls-3{fill:url(#Degradado_sin_nombre_2-3);}.cls-4{fill:#1d1d1b;}</style><linearGradient id="Degradado_sin_nombre_2" x1="186.4" y1="420.79" x2="227.4" y2="420.79" gradientUnits="userSpaceOnUse"><stop offset="0" stop-color="#0cf"/><stop offset="1" stop-color="#3f9"/></linearGradient><linearGradient id="Degradado_sin_nombre_2-2" x1="198.54" y1="423.37" x2="221.52" y2="423.37" xlink:href="#Degradado_sin_nombre_2"/><linearGradient id="Degradado_sin_nombre_2-3" x1="192.28" y1="418.36" x2="215.3" y2="418.36" xlink:href="#Degradado_sin_nombre_2"/></defs><title>logo horizontal positivo SVG</title><path class="cls-1" d="M225.1,418.49a2,2,0,0,0-.56.08L220,410.62l-.83-1.43-1.5-2.6a2.3,2.3,0,1,0-3.9-2.19H200a2.3,2.3,0,1,0-3.85,2.25l-6.88,11.92a2,2,0,0,0-.56-.08,2.3,2.3,0,0,0,0,4.6,2,2,0,0,0,.56-.07l4.69,8.12.72,1.25,1.47,2.54a2.3,2.3,0,1,0,3.85,2.25h13.73a2.3,2.3,0,0,0,4.51-.63,2.25,2.25,0,0,0-.61-1.55l6.92-12a2,2,0,0,0,.56.07,2.3,2.3,0,0,0,0-4.6Zm-1.65,3.9-6.9,11.95a2,2,0,0,0-.61-.09,2.3,2.3,0,0,0-2.22,1.68H200a2.31,2.31,0,0,0-2.21-1.68,2.35,2.35,0,0,0-.54.07l-1.28-2.2-1-1.74-4.61-8a2.29,2.29,0,0,0,0-3.2l6.89-11.93a1.9,1.9,0,0,0,.54.07,2.31,2.31,0,0,0,2.21-1.67h13.73a2.3,2.3,0,0,0,2.22,1.67,2,2,0,0,0,.61-.09l1.29,2.23,1.13,2,4.48,7.75a2.29,2.29,0,0,0,0,3.2Z" transform="translate(-186.4 -402.73)"/><path class="cls-2" d="M213.22,416.28l-2.1,1.76-.41.34h0l-1.08.92-.79.66-.11.09c-.12.12-.26.22-.38.33l-.06.05c-.06,0-.06.08,0,.14s.19.27.27.42l.93,1.36c.37.54.74,1.08,1.1,1.63.07.11.13.22.21.33.69,1,1.34,2,2,3l.63.94,0,.07s-.08,0-.12.05l-3.33.72-2.7.58-.38.08a5.07,5.07,0,0,1-.56.13l-1.71.37-2.58.56-3.32.71-.22.5.56,1a1.33,1.33,0,0,0,1.16.67h13.28a1.33,1.33,0,0,0,1.16-.67l6.64-11.5a1.34,1.34,0,0,0,0-1.34l-4-6.84a.33.33,0,0,0-.5-.09l-2.32,1.95Z" transform="translate(-186.4 -402.73)"/><path class="cls-3" d="M213.54,408H200.26a1.33,1.33,0,0,0-1.16.67l-6.64,11.5a1.34,1.34,0,0,0,0,1.34l4.16,7.21.49.1.51-.38,2.3-1.72,1.28-.95,2-1.47,1.09-.82,2.27-1.69,1.56-1.17a.31.31,0,0,0,.11-.09L203,412.7a.13.13,0,0,1,.12-.05l4.56-1,2.6-.56.08,0c.32-.08.64-.14,1-.21l3.3-.71.45-.1a.33.33,0,0,0,.22-.49l-.55-1A1.33,1.33,0,0,0,213.54,408Z" transform="translate(-186.4 -402.73)"/><path class="cls-4" d="M253,423.57l3.32,5.21h-6.1l-2.91-4.65H242.7v4.64h-5.6V414h11.84c5,0,7.51,1.67,7.51,4.95v.19A4.36,4.36,0,0,1,253,423.57Zm-10.33-3.4h6.16c1.79,0,1.79-.75,1.79-1v-.06c0-.29,0-1.06-1.79-1.06H242.7Z" transform="translate(-186.4 -402.73)"/><path class="cls-4" d="M272.18,420.86v-6.8h5.58v7.05a7.86,7.86,0,0,1-.22,1.85,7.69,7.69,0,0,1-2.6,3.92,8.35,8.35,0,0,1-2.84,1.36,14.45,14.45,0,0,1-4.07.53h-.73a17.27,17.27,0,0,1-3.17-.27,10.47,10.47,0,0,1-2.45-.74,7.89,7.89,0,0,1-1.79-1.13,6.6,6.6,0,0,1-1.23-1.35,7,7,0,0,1-.75-1.47,7.64,7.64,0,0,1-.39-1.42,9.07,9.07,0,0,1-.09-1.28v-7.05H263v6.8a3.43,3.43,0,0,0,.84,2.36,3.05,3.05,0,0,0,1.38.85,7.51,7.51,0,0,0,2.38.33,7.18,7.18,0,0,0,2.33-.33,3.07,3.07,0,0,0,1.37-.85,3.46,3.46,0,0,0,.66-1.12,3.84,3.84,0,0,0,.19-1.24Z" transform="translate(-186.4 -402.73)"/><path class="cls-4" d="M294.33,414h5.54v14.76h-5.29l-9.76-8.71v8.71h-5.53V414h5.89l9.15,8.25Z" transform="translate(-186.4 -402.73)"/><path class="cls-4" d="M307.27,424.71h11.34v4.06H301.72V414h16.89v4H307.27v1.23h11.34v4H307.27Z" transform="translate(-186.4 -402.73)"/><path class="cls-4" d="M340.38,422.36a3.77,3.77,0,0,1,.4,1.73v.26c0,2.94-2.27,4.42-6.74,4.42h-13.6V414h13.48a8.09,8.09,0,0,1,4.55,1,3.1,3.1,0,0,1,1.45,2.63v.26a3,3,0,0,1-.3,1.34,2.81,2.81,0,0,1-.82,1l-.55.36a7.1,7.1,0,0,1,1.07.6A3.28,3.28,0,0,1,340.38,422.36Zm-14.33-3.14h7.05c1.24,0,1.24-.5,1.24-.71s0-.73-1.24-.73h-7.05Zm8.93,4.67c0-.27,0-.88-1.47-.88h-7.46v1.9h7.46c.74,0,1.05-.15,1.18-.29A.87.87,0,0,0,335,424Z" transform="translate(-186.4 -402.73)"/><path class="cls-4" d="M364.32,419.89a9.06,9.06,0,0,1,.08,1.2v.54a9,9,0,0,1-.08,1.18,6.09,6.09,0,0,1-.4,1.33,6.22,6.22,0,0,1-.78,1.38,6.54,6.54,0,0,1-1.37,1.26,8.87,8.87,0,0,1-2,1.05,14.36,14.36,0,0,1-2.8.68,22.86,22.86,0,0,1-3.67.26h-.65a24.42,24.42,0,0,1-3.69-.25,15,15,0,0,1-2.81-.69,8.48,8.48,0,0,1-2-1.05,6.52,6.52,0,0,1-1.37-1.25,5.65,5.65,0,0,1-.8-1.39,6.52,6.52,0,0,1-.38-1.33,8.87,8.87,0,0,1-.08-1.18v-.54a9,9,0,0,1,.08-1.2,6.56,6.56,0,0,1,.38-1.31,5.41,5.41,0,0,1,.8-1.38,6.4,6.4,0,0,1,1.36-1.24,8.15,8.15,0,0,1,2-1,14.35,14.35,0,0,1,2.81-.67,26,26,0,0,1,3.69-.25h.65a25.47,25.47,0,0,1,3.66.25,14.6,14.6,0,0,1,2.8.67,8.08,8.08,0,0,1,2,1,6.68,6.68,0,0,1,1.36,1.24,6.21,6.21,0,0,1,1.2,2.69Zm-5.74,1.58v-.26a2.89,2.89,0,0,0-.12-.84,2.72,2.72,0,0,0-.48-.81,3.19,3.19,0,0,0-.94-.73,6.32,6.32,0,0,0-1.67-.53,11.85,11.85,0,0,0-2-.21h-.62c-3.63.07-5.4,1.09-5.4,3.13v.22a2.65,2.65,0,0,0,.23,1.08,3.53,3.53,0,0,0,.77,1,4.16,4.16,0,0,0,1.73.82,11.67,11.67,0,0,0,2.74.33h.47a11.53,11.53,0,0,0,2.57-.32,4.41,4.41,0,0,0,1.74-.81,3.2,3.2,0,0,0,.79-1,2.77,2.77,0,0,0,.22-1.07Z" transform="translate(-186.4 -402.73)"/><path class="cls-4" d="M380.72,414h5.54v14.76H381l-9.75-8.71v8.71h-5.54V414h5.89l9.15,8.25Z" transform="translate(-186.4 -402.73)"/><path class="cls-4" d="M409.62,419.33a7.11,7.11,0,0,1,.2,1.69v.56a7.46,7.46,0,0,1-.26,2,6,6,0,0,1-1,1.95,6.78,6.78,0,0,1-2,1.69,11.73,11.73,0,0,1-3.24,1.14,22,22,0,0,1-4.62.43H388.11V414h10.53a26,26,0,0,1,3.92.27,11.87,11.87,0,0,1,3,.79,9.84,9.84,0,0,1,2.05,1.15,4.74,4.74,0,0,1,1.37,1.51A7.19,7.19,0,0,1,409.62,419.33Zm-5.63,2c0-.78,0-3.16-5.72-3.16h-4.55v6.45h4.55c5.72,0,5.72-2.39,5.72-3.18Z" transform="translate(-186.4 -402.73)"/></svg>